<svg xmlns="http://www.w3.org/2000/svg" xmlns:xlink="http://www.w3.org/1999/xlink" width="80" zoomAndPan="magnify" viewBox="0 0 60 30.000001" height="40" preserveAspectRatio="xMidYMid meet" version="1.0"><defs><g/></defs><g fill="#db4437" fill-opacity="1"><g transform="translate(0.967741, 11.392723)"><g><path d="M 1.351562 -4.070312 C 2.800781 -4.070312 3.703125 -7.121094 4.710938 -7.121094 C 4.824219 -7.121094 4.851562 -7.019531 4.851562 -6.945312 C 4.851562 -6.238281 2.671875 -3.921875 2.671875 -2.175781 C 2.671875 -0.945312 3.445312 0.136719 4.59375 0.136719 C 5.347656 0.136719 6.117188 -0.78125 6.164062 -1.066406 C 5.539062 -1.066406 4.980469 -1.929688 4.980469 -2.949219 L 4.980469 -6.953125 C 4.980469 -7.109375 4.941406 -7.25 4.730469 -7.25 C 4.003906 -7.25 2.738281 -5.90625 1.40625 -5.90625 C 0.910156 -5.90625 0.542969 -6.164062 0.542969 -6.6875 C 0.542969 -7.347656 1.5625 -7.929688 2.488281 -7.929688 C 4.0625 -7.929688 5.734375 -6.53125 6.917969 -6.53125 C 7.671875 -6.53125 7.9375 -6.890625 8.140625 -7.347656 C 8.371094 -7.875 8.589844 -8.460938 8.910156 -9.1875 L 3.371094 -9.1875 C 1.507812 -9.1875 0.09375 -7.007812 0.09375 -5.578125 C 0.09375 -4.574219 0.660156 -4.070312 1.351562 -4.070312 Z M 1.351562 -4.070312 "/></g></g></g><g fill="#db4437" fill-opacity="1"><g transform="translate(9.970396, 11.392723)"><g><path d="M 0.277344 -3.003906 C 0.277344 -1.269531 1.707031 0.148438 3.4375 0.148438 C 4.867188 0.148438 5.972656 -0.6875 5.972656 -1.855469 C 5.972656 -2.195312 5.796875 -2.488281 5.613281 -2.535156 C 5.265625 -2.078125 4.839844 -1.882812 4.246094 -1.882812 C 3.554688 -1.882812 2.941406 -2.195312 2.535156 -2.710938 L 3.222656 -2.710938 C 5.164062 -2.710938 5.960938 -3.398438 5.960938 -4.308594 C 5.960938 -5.375 4.996094 -6.328125 3.648438 -6.328125 C 3.445312 -6.328125 2.03125 -5.859375 1.230469 -5.191406 C 0.632812 -4.683594 0.277344 -3.8125 0.277344 -3.003906 Z M 3.058594 -5.972656 C 3.664062 -5.972656 3.960938 -5.164062 3.960938 -4.585938 C 3.960938 -3.566406 3.214844 -2.976562 2.417969 -2.867188 C 2.148438 -3.269531 1.992188 -3.777344 1.992188 -4.335938 C 1.992188 -4.988281 2.304688 -5.972656 3.058594 -5.972656 Z M 3.058594 -5.972656 "/></g></g></g><g fill="#db4437" fill-opacity="1"><g transform="translate(16.033408, 11.392723)"><g><path d="M 0.605469 -4.003906 L 0.605469 -1.433594 C 0.605469 -0.0742188 0.203125 -0.0351562 0.203125 -0.0351562 L 0.203125 0 L 3.167969 0 L 3.167969 -0.0351562 C 3.167969 -0.0351562 2.765625 -0.0742188 2.765625 -1.433594 L 2.765625 -4.199219 C 2.792969 -4.4375 3.050781 -4.742188 3.425781 -4.742188 C 3.96875 -4.742188 4.144531 -4.289062 4.144531 -3.792969 L 4.144531 -0.644531 C 4.144531 -0.320312 4.742188 0.136719 5.023438 0.136719 C 5.4375 0.136719 6.285156 -0.285156 6.789062 -0.632812 L 6.789062 -0.671875 C 6.550781 -0.863281 6.300781 -1.257812 6.300781 -1.71875 L 6.300781 -4.539062 C 6.300781 -5.449219 5.742188 -6.339844 4.601562 -6.339844 C 4.390625 -6.339844 4.261719 -6.300781 4.089844 -6.257812 C 3.59375 -5.90625 3.070312 -5.179688 2.765625 -4.601562 L 2.765625 -5.519531 C 2.765625 -5.933594 2.214844 -6.339844 1.902344 -6.339844 C 1.589844 -6.339844 0.800781 -5.925781 0.09375 -5.632812 L 0.09375 -5.59375 C 0.558594 -5.199219 0.605469 -4.667969 0.605469 -4.003906 Z M 0.605469 -4.003906 "/></g></g></g><g fill="#db4437" fill-opacity="1"><g transform="translate(22.914008, 11.392723)"><g><path d="M 0.496094 -6.15625 L 0.496094 -0.644531 C 0.496094 -0.320312 1.09375 0.136719 1.378906 0.136719 C 1.792969 0.136719 2.636719 -0.285156 3.140625 -0.632812 L 3.140625 -0.671875 C 2.902344 -0.863281 2.65625 -1.257812 2.65625 -1.71875 L 2.65625 -6.15625 L 3.242188 -6.15625 L 3.242188 -6.339844 L 2.65625 -6.339844 L 2.65625 -8.488281 L 2.609375 -8.488281 C 1.890625 -7.496094 0.761719 -6.613281 -0.09375 -6.339844 L -0.09375 -6.15625 Z M 0.496094 -6.15625 "/></g></g></g><g fill="#db4437" fill-opacity="1"><g transform="translate(26.248665, 11.392723)"><g><path d="M 0.09375 -1.351562 C 0.09375 -0.515625 0.828125 0.136719 1.644531 0.136719 C 2.09375 0.136719 2.433594 0 2.738281 -0.285156 L 3.777344 -2.710938 C 3.777344 -1.691406 3.765625 -0.78125 3.765625 -0.644531 C 3.765625 -0.320312 4.363281 0.136719 4.648438 0.136719 C 5.0625 0.136719 5.90625 -0.285156 6.414062 -0.632812 L 6.414062 -0.671875 C 6.171875 -0.863281 5.925781 -1.257812 5.925781 -1.71875 L 5.925781 -3.445312 C 5.925781 -5.054688 4.59375 -6.339844 2.746094 -6.339844 C 1.441406 -6.339844 0.136719 -5.394531 0.136719 -4.566406 C 0.136719 -4.042969 0.78125 -3.371094 1.25 -3.378906 C 1.78125 -4.4375 3.207031 -5.972656 3.609375 -5.972656 C 3.757812 -5.972656 3.792969 -5.878906 3.792969 -5.703125 C 3.792969 -5.429688 3.785156 -4.34375 3.785156 -3.253906 L 1.992188 -3.253906 C 0.964844 -3.253906 0.09375 -2.398438 0.09375 -1.351562 Z M 2.195312 -2.09375 C 2.195312 -2.609375 3.011719 -3.039062 3.785156 -3.085938 L 3.765625 -3.097656 C 3.738281 -2.71875 3.03125 -1.792969 2.515625 -1.792969 C 2.316406 -1.792969 2.195312 -1.9375 2.195312 -2.09375 Z M 2.195312 -2.09375 "/></g></g></g><g fill="#db4437" fill-opacity="1"><g transform="translate(32.660761, 11.392723)"><g><path d="M 0.605469 -4.003906 L 0.605469 -1.433594 C 0.605469 -0.0742188 0.203125 -0.0351562 0.203125 -0.0351562 L 0.203125 0 L 3.167969 0 L 3.167969 -0.0351562 C 3.167969 -0.0351562 2.765625 -0.0742188 2.765625 -1.433594 L 2.765625 -4.199219 C 2.792969 -4.4375 3.050781 -4.742188 3.425781 -4.742188 C 3.96875 -4.742188 4.144531 -4.289062 4.144531 -3.792969 L 4.144531 -0.644531 C 4.144531 -0.320312 4.742188 0.136719 5.023438 0.136719 C 5.4375 0.136719 6.285156 -0.285156 6.789062 -0.632812 L 6.789062 -0.671875 C 6.550781 -0.863281 6.300781 -1.257812 6.300781 -1.71875 L 6.300781 -4.539062 C 6.300781 -5.449219 5.742188 -6.339844 4.601562 -6.339844 C 4.390625 -6.339844 4.261719 -6.300781 4.089844 -6.257812 C 3.59375 -5.90625 3.070312 -5.179688 2.765625 -4.601562 L 2.765625 -5.519531 C 2.765625 -5.933594 2.214844 -6.339844 1.902344 -6.339844 C 1.589844 -6.339844 0.800781 -5.925781 0.09375 -5.632812 L 0.09375 -5.59375 C 0.558594 -5.199219 0.605469 -4.667969 0.605469 -4.003906 Z M 0.605469 -4.003906 "/></g></g></g><g fill="#db4437" fill-opacity="1"><g transform="translate(39.541361, 11.392723)"><g><path d="M 2.296875 3.214844 C 4.511719 3.214844 6.257812 1.121094 6.257812 -0.238281 C 6.257812 -0.488281 6.164062 -0.652344 5.917969 -0.6875 L 3.867188 -1.027344 L 5.300781 -2.058594 C 5.667969 -2.324219 6.230469 -2.894531 6.230469 -4.132812 C 6.230469 -5.097656 5.734375 -5.695312 5.070312 -6.015625 L 6.558594 -6.015625 L 6.558594 -6.199219 L 4.59375 -6.199219 C 4.253906 -6.292969 3.90625 -6.339844 3.566406 -6.339844 C 2.699219 -6.339844 1.40625 -5.476562 0.871094 -4.925781 C 0.597656 -4.472656 0.3125 -3.847656 0.3125 -3.113281 C 0.3125 -1.496094 1.707031 -0.898438 2.929688 -0.898438 C 3.214844 -0.898438 3.480469 -0.9375 3.730469 -0.992188 L 2.433594 0.230469 L 1.25 0.230469 C 0.835938 0.230469 0.09375 0.617188 0.09375 1.433594 C 0.09375 2.488281 0.984375 3.214844 2.296875 3.214844 Z M 2.488281 -4.59375 C 2.488281 -5.769531 2.800781 -6.117188 3.28125 -6.117188 C 3.738281 -6.117188 4.050781 -5.769531 4.050781 -4.59375 L 4.050781 -2.617188 C 4.050781 -1.433594 3.738281 -1.085938 3.28125 -1.085938 C 2.800781 -1.085938 2.488281 -1.433594 2.488281 -2.617188 Z M 1.734375 0.929688 C 1.734375 0.625 2.058594 0.394531 2.644531 0.394531 C 2.828125 0.394531 3.039062 0.421875 3.269531 0.46875 L 4.804688 0.78125 C 5.308594 0.882812 5.578125 0.917969 5.578125 1.113281 C 5.578125 1.480469 4.839844 1.570312 3.710938 1.570312 C 2.957031 1.570312 1.734375 1.617188 1.734375 0.929688 Z M 1.734375 0.929688 "/></g></g></g><g fill="#db4437" fill-opacity="1"><g transform="translate(46.192787, 11.392723)"><g/></g></g><g fill="#db4437" fill-opacity="1"><g transform="translate(48.489383, 11.392723)"><g/></g></g><g fill="#db4437" fill-opacity="1"><g transform="translate(50.785978, 11.392723)"><g/></g></g><g fill="#db4437" fill-opacity="1"><g transform="translate(53.082574, 11.392723)"><g/></g></g><g fill="#db4437" fill-opacity="1"><g transform="translate(55.37917, 11.392723)"><g/></g></g><g fill="#db4437" fill-opacity="1"><g transform="translate(57.675765, 11.392723)"><g/></g></g><g fill="#db4437" fill-opacity="1"><g transform="translate(7.300321, 24.237457)"><g><path d="M 0.09375 -5.429688 C 0.09375 -4.710938 0.46875 -3.976562 1.175781 -3.976562 C 2.65625 -3.976562 2.894531 -6.871094 3.527344 -6.871094 C 4.316406 -6.871094 2.359375 -1.085938 0.332031 -0.0351562 L 0.332031 0 L 2.398438 0 C 3.03125 -0.246094 3.820312 -3.390625 3.785156 -6.320312 C 4.328125 -3.546875 4.558594 -0.203125 5.878906 -0.203125 C 6.605469 -0.203125 7.359375 -1.195312 7.632812 -1.5625 L 7.632812 -1.597656 C 7.515625 -1.597656 7.394531 -1.664062 7.292969 -1.773438 L 7.292969 -7.257812 C 7.707031 -6.441406 7.855469 -5.292969 7.964844 -4.59375 C 8.285156 -2.574219 8.726562 0.136719 10.140625 0.136719 C 10.519531 0.136719 11.519531 -0.476562 12.152344 -0.984375 L 12.152344 -1.019531 C 11.015625 -1.019531 10.574219 -2.976562 10.261719 -4.59375 C 9.902344 -6.441406 9.914062 -9.324219 8.195312 -9.324219 C 7.734375 -9.324219 6.9375 -8.644531 6.199219 -8.203125 L 6.199219 -8.167969 C 6.597656 -8.101562 6.910156 -7.890625 7.136719 -7.53125 L 7.136719 -1.984375 C 6.769531 -2.609375 6.523438 -3.921875 6.292969 -5.265625 C 5.953125 -7.257812 5.796875 -9.324219 3.554688 -9.324219 C 1.515625 -9.324219 0.09375 -6.992188 0.09375 -5.429688 Z M 0.589844 -6.578125 C 0.589844 -7.175781 1.332031 -8.339844 2.1875 -8.339844 C 2.902344 -8.339844 3.363281 -7.773438 3.601562 -6.992188 C 3.160156 -7.175781 2.71875 -5.789062 1.359375 -5.789062 C 0.882812 -5.789062 0.589844 -6.117188 0.589844 -6.578125 Z M 0.589844 -6.578125 "/></g></g></g><g fill="#db4437" fill-opacity="1"><g transform="translate(19.54577, 24.237457)"><g><path d="M 0.09375 -1.351562 C 0.09375 -0.515625 0.828125 0.136719 1.644531 0.136719 C 2.09375 0.136719 2.433594 0 2.738281 -0.285156 L 3.777344 -2.710938 C 3.777344 -1.691406 3.765625 -0.78125 3.765625 -0.644531 C 3.765625 -0.320312 4.363281 0.136719 4.648438 0.136719 C 5.0625 0.136719 5.90625 -0.285156 6.414062 -0.632812 L 6.414062 -0.671875 C 6.171875 -0.863281 5.925781 -1.257812 5.925781 -1.71875 L 5.925781 -3.445312 C 5.925781 -5.054688 4.59375 -6.339844 2.746094 -6.339844 C 1.441406 -6.339844 0.136719 -5.394531 0.136719 -4.566406 C 0.136719 -4.042969 0.78125 -3.371094 1.25 -3.378906 C 1.78125 -4.4375 3.207031 -5.972656 3.609375 -5.972656 C 3.757812 -5.972656 3.792969 -5.878906 3.792969 -5.703125 C 3.792969 -5.429688 3.785156 -4.34375 3.785156 -3.253906 L 1.992188 -3.253906 C 0.964844 -3.253906 0.09375 -2.398438 0.09375 -1.351562 Z M 2.195312 -2.09375 C 2.195312 -2.609375 3.011719 -3.039062 3.785156 -3.085938 L 3.765625 -3.097656 C 3.738281 -2.71875 3.03125 -1.792969 2.515625 -1.792969 C 2.316406 -1.792969 2.195312 -1.9375 2.195312 -2.09375 Z M 2.195312 -2.09375 "/></g></g></g><g fill="#db4437" fill-opacity="1"><g transform="translate(25.957865, 24.237457)"><g><path d="M 0.09375 -8.582031 C 0.558594 -8.183594 0.605469 -7.652344 0.605469 -6.992188 L 0.605469 -0.644531 C 0.605469 -0.320312 1.203125 0.136719 1.488281 0.136719 C 1.902344 0.136719 2.746094 -0.285156 3.253906 -0.632812 L 3.253906 -0.671875 C 3.011719 -0.863281 2.765625 -1.257812 2.765625 -1.71875 L 2.765625 -8.507812 C 2.765625 -8.921875 2.214844 -9.324219 1.902344 -9.324219 C 1.589844 -9.324219 0.800781 -8.910156 0.09375 -8.617188 Z M 0.09375 -8.582031 "/></g></g></g><g fill="#db4437" fill-opacity="1"><g transform="translate(29.301708, 24.237457)"><g><path d="M 0.09375 -1.351562 C 0.09375 -0.515625 0.828125 0.136719 1.644531 0.136719 C 2.09375 0.136719 2.433594 0 2.738281 -0.285156 L 3.777344 -2.710938 C 3.777344 -1.691406 3.765625 -0.78125 3.765625 -0.644531 C 3.765625 -0.320312 4.363281 0.136719 4.648438 0.136719 C 5.0625 0.136719 5.90625 -0.285156 6.414062 -0.632812 L 6.414062 -0.671875 C 6.171875 -0.863281 5.925781 -1.257812 5.925781 -1.71875 L 5.925781 -3.445312 C 5.925781 -5.054688 4.59375 -6.339844 2.746094 -6.339844 C 1.441406 -6.339844 0.136719 -5.394531 0.136719 -4.566406 C 0.136719 -4.042969 0.78125 -3.371094 1.25 -3.378906 C 1.78125 -4.4375 3.207031 -5.972656 3.609375 -5.972656 C 3.757812 -5.972656 3.792969 -5.878906 3.792969 -5.703125 C 3.792969 -5.429688 3.785156 -4.34375 3.785156 -3.253906 L 1.992188 -3.253906 C 0.964844 -3.253906 0.09375 -2.398438 0.09375 -1.351562 Z M 2.195312 -2.09375 C 2.195312 -2.609375 3.011719 -3.039062 3.785156 -3.085938 L 3.765625 -3.097656 C 3.738281 -2.71875 3.03125 -1.792969 2.515625 -1.792969 C 2.316406 -1.792969 2.195312 -1.9375 2.195312 -2.09375 Z M 2.195312 -2.09375 "/></g></g></g><g fill="#db4437" fill-opacity="1"><g transform="translate(35.713804, 24.237457)"><g><path d="M 0.605469 -6.992188 L 0.605469 -0.644531 C 0.605469 -0.320312 1.203125 0.136719 1.488281 0.136719 C 1.902344 0.136719 2.746094 -0.285156 3.253906 -0.632812 L 3.253906 -0.671875 C 3.011719 -0.863281 2.765625 -1.257812 2.765625 -1.71875 L 2.765625 -3.070312 L 2.820312 -3.070312 C 3.308594 -3.070312 3.703125 -1.691406 4.207031 -0.78125 C 4.429688 -0.386719 4.601562 0 5.054688 0 L 7.136719 0 L 7.136719 -0.046875 C 6.972656 -0.109375 6.449219 -1.027344 5.816406 -2.304688 C 5.4375 -3.070312 5.152344 -3.195312 4.648438 -3.195312 L 2.914062 -3.195312 C 3.023438 -3.820312 3.417969 -4.335938 4.402344 -4.335938 C 5.023438 -4.335938 5.511719 -4.144531 5.960938 -3.921875 L 6.421875 -5.945312 C 5.972656 -6.199219 5.4375 -6.339844 4.851562 -6.339844 C 3.691406 -6.339844 3.039062 -4.742188 2.765625 -3.222656 L 2.765625 -8.507812 C 2.765625 -8.921875 2.214844 -9.324219 1.902344 -9.324219 C 1.589844 -9.324219 0.800781 -8.910156 0.09375 -8.617188 L 0.09375 -8.582031 C 0.558594 -8.183594 0.605469 -7.652344 0.605469 -6.992188 Z M 0.605469 -6.992188 "/></g></g></g><g fill="#db4437" fill-opacity="1"><g transform="translate(42.943488, 24.237457)"><g><path d="M 0.09375 -1.351562 C 0.09375 -0.515625 0.828125 0.136719 1.644531 0.136719 C 2.09375 0.136719 2.433594 0 2.738281 -0.285156 L 3.777344 -2.710938 C 3.777344 -1.691406 3.765625 -0.78125 3.765625 -0.644531 C 3.765625 -0.320312 4.363281 0.136719 4.648438 0.136719 C 5.0625 0.136719 5.90625 -0.285156 6.414062 -0.632812 L 6.414062 -0.671875 C 6.171875 -0.863281 5.925781 -1.257812 5.925781 -1.71875 L 5.925781 -3.445312 C 5.925781 -5.054688 4.59375 -6.339844 2.746094 -6.339844 C 1.441406 -6.339844 0.136719 -5.394531 0.136719 -4.566406 C 0.136719 -4.042969 0.78125 -3.371094 1.25 -3.378906 C 1.78125 -4.4375 3.207031 -5.972656 3.609375 -5.972656 C 3.757812 -5.972656 3.792969 -5.878906 3.792969 -5.703125 C 3.792969 -5.429688 3.785156 -4.34375 3.785156 -3.253906 L 1.992188 -3.253906 C 0.964844 -3.253906 0.09375 -2.398438 0.09375 -1.351562 Z M 2.195312 -2.09375 C 2.195312 -2.609375 3.011719 -3.039062 3.785156 -3.085938 L 3.765625 -3.097656 C 3.738281 -2.71875 3.03125 -1.792969 2.515625 -1.792969 C 2.316406 -1.792969 2.195312 -1.9375 2.195312 -2.09375 Z M 2.195312 -2.09375 "/></g></g></g><g fill="#db4437" fill-opacity="1"><g transform="translate(49.355584, 24.237457)"><g><path d="M 0.460938 -1.210938 L 1.664062 0 L 2.882812 -1.210938 L 1.664062 -2.433594 Z M 0.460938 -1.210938 "/></g></g></g></svg>